<?xml version="1.0" encoding="UTF-8"?>
<svg id="_레이어_2" data-name="레이어 2" xmlns="http://www.w3.org/2000/svg" viewBox="0 0 59.45 59.45">
  <defs>
    <style>
      .cls-1 {
        fill: #fff;
      }

      .cls-2 {
        fill: #080710;
      }
    </style>
  </defs>
  <g id="_레이어_1-2" data-name="레이어 1">
    <g>
      <rect class="cls-1" width="59.45" height="59.45" rx="7.71" ry="7.71"/>
      <path class="cls-2" d="M45.88,17c-6.39-5.95-16.74-5.92-23.42-.05-.64-.36-1.38-.56-2.17-.56-2.48,0-4.5,2.02-4.5,4.5s2.02,4.5,4.5,4.5,4.5-2.02,4.5-4.5c0-.62-.12-1.2-.35-1.74,5.56-4.87,14.1-4.92,19.41.02,2.87,2.67,4.49,6.3,4.56,10.22.07,3.91-1.42,7.6-4.18,10.36-5.57,5.57-14.64,5.57-20.22,0l-1.05-1.05-1.24,1.25c-2.39,2.39-6.28,2.39-8.67,0-2.49-2.49-2.7-6.41-.48-8.94,1.19-1.35,2.82-2.13,4.61-2.19,1.29-.04,2.52.29,3.59.96l.21.13-1.39,1.39c-.65-.37-1.4-.58-2.21-.58-2.48,0-4.5,2.02-4.5,4.5s2.02,4.5,4.5,4.5,4.5-2.02,4.5-4.5c0-.59-.12-1.16-.33-1.68l1.61-1.61,4.34,4.34c1.72,1.72,4.01,2.67,6.44,2.67s4.72-.95,6.44-2.67c1.72-1.72,2.67-4.01,2.67-6.44s-.95-4.72-2.67-6.44c-1.72-1.72-4.01-2.67-6.44-2.67s-4.72.95-6.44,2.67l-4.4,4.4-.14-.1c-1.73-1.28-3.81-1.93-5.87-1.84-2.62.08-5.02,1.22-6.76,3.2-3.25,3.7-2.98,9.41.62,13,3.18,3.18,8.29,3.55,11.89.86l.12-.09.12.1c3.08,2.57,7.01,3.99,11.05,3.99,4.62,0,8.96-1.79,12.21-5.05,3.34-3.34,5.14-7.79,5.06-12.52-.08-4.73-2.04-9.11-5.51-12.34ZM17.37,36.76c-.84,0-1.53-.69-1.53-1.53s.69-1.53,1.53-1.53,1.53.69,1.53,1.53-.69,1.53-1.53,1.53ZM29.59,25.5c1.16-1.16,2.7-1.8,4.34-1.8s3.18.64,4.34,1.8c1.16,1.16,1.8,2.7,1.8,4.34s-.64,3.18-1.8,4.34c-1.16,1.16-2.7,1.8-4.34,1.8s-3.18-.64-4.34-1.8l-4.34-4.34,4.34-4.34Z"/>
    </g>
  </g>
</svg>