<?xml version="1.0" encoding="UTF-8"?>
<svg id="_레이어_2" data-name="레이어 2" xmlns="http://www.w3.org/2000/svg" viewBox="0 0 157.17 100.56">
  <defs>
    <style>
      .cls-1 {
        fill: #080710;
      }
    </style>
  </defs>
  <g id="_레이어_1-2" data-name="레이어 1">
    <g>
      <path class="cls-1" d="M109.41,8.5c-12.19-11.35-31.94-11.29-44.66-.09-1.23-.68-2.64-1.07-4.14-1.07-4.74,0-8.59,3.85-8.59,8.59s3.85,8.59,8.59,8.59,8.59-3.85,8.59-8.59c0-1.17-.24-2.29-.67-3.31,10.6-9.29,26.9-9.38,37.01.04,5.48,5.1,8.57,12.02,8.7,19.49.13,7.47-2.7,14.49-7.98,19.77-10.63,10.63-27.93,10.63-38.57,0l-2.01-2.01-2.37,2.38c-4.56,4.56-11.99,4.56-16.55,0-4.75-4.75-5.15-12.23-.92-17.04,2.26-2.58,5.38-4.06,8.79-4.17,2.45-.07,4.81.56,6.85,1.83l.4.25-2.65,2.65c-1.25-.7-2.68-1.11-4.21-1.11-4.74,0-8.59,3.85-8.59,8.59s3.85,8.59,8.59,8.59,8.59-3.85,8.59-8.59c0-1.13-.23-2.22-.63-3.21l3.06-3.06,8.27,8.27c3.28,3.28,7.64,5.09,12.29,5.09s9.01-1.81,12.29-5.09c3.28-3.28,5.09-7.65,5.09-12.29s-1.81-9.01-5.09-12.29c-3.29-3.28-7.65-5.09-12.29-5.09s-9.01,1.81-12.29,5.09l-8.39,8.39-.26-.19c-3.29-2.43-7.26-3.68-11.2-3.52-5,.16-9.58,2.32-12.89,6.09-6.2,7.05-5.68,17.95,1.18,24.8,6.06,6.06,15.81,6.77,22.67,1.65l.24-.18.23.19c5.88,4.91,13.37,7.61,21.08,7.61,8.81,0,17.09-3.42,23.3-9.63,6.38-6.38,9.8-14.86,9.65-23.89-.16-9.02-3.89-17.38-10.51-23.54ZM55.02,46.2c-1.61,0-2.91-1.31-2.91-2.91s1.31-2.91,2.91-2.91,2.91,1.31,2.91,2.91-1.31,2.91-2.91,2.91ZM78.34,24.73c2.21-2.21,5.15-3.43,8.27-3.43s6.06,1.22,8.27,3.43c2.21,2.21,3.43,5.15,3.43,8.27s-1.22,6.06-3.43,8.28c-2.21,2.21-5.15,3.43-8.28,3.43s-6.06-1.22-8.27-3.43l-8.27-8.27,8.27-8.27Z"/>
      <g>
        <path class="cls-1" d="M18.57,76.65H1.93c-1.23,0-1.93.69-1.93,1.88s.7,1.86,1.93,1.86h17.07c3.16,0,4.76.71,4.76,2.11v3.52c0,1.49-1.67,2.24-4.96,2.24H5.18c-4.28,0-5.18,1.91-5.18,3.51v6.82c0,1.23.81,1.93,2.21,1.93,2.02,0,2.23-1.35,2.23-1.93v-6.5s0-.07,0-.09h13.93c6.45,0,9.73-1.95,9.73-5.81v-4c0-3.69-3.21-5.56-9.53-5.56Z"/>
        <path class="cls-1" d="M48.24,82.02h-9.12c-6.16,0-9.28,1.83-9.28,5.43v7.2c0,3.8,2.8,5.73,8.31,5.73h8.37c1.05,0,1.65-.66,1.65-1.81s-.6-1.81-1.65-1.81h-8.9c-3.62,0-3.62-1.57-3.62-2.09v-7.15c0-1.25,1.52-1.89,4.51-1.89h10.47c.81,0,.81.3.81.52v12.47c0,1.23.76,1.93,2.1,1.93s2.07-.7,2.07-1.93v-11.94c0-2.13-1-4.66-5.73-4.66Z"/>
        <path class="cls-1" d="M69.48,82.02h-5.81v-3.62c0-1.21-.74-1.91-2.03-1.91s-2.08.69-2.08,1.91v20.22c0,1.23.75,1.93,2.06,1.93s2.06-.7,2.06-1.93v-12.98h5.81c1.15,0,1.81-.66,1.81-1.81s-.66-1.81-1.81-1.81Z"/>
        <path class="cls-1" d="M75.75,76.5c-1.31,0-2.06.69-2.06,1.91v20.22c0,1.23.75,1.93,2.06,1.93s2.11-.7,2.11-1.93v-20.22c0-1.21-.77-1.91-2.11-1.91Z"/>
        <path class="cls-1" d="M87.89,82.02h-6.64c-1.19,0-1.88.66-1.88,1.81s.68,1.81,1.88,1.81h7.57c4.86,0,4.86,1.84,4.86,2.44v10.54c0,1.23.75,1.93,2.06,1.93s2.11-.7,2.11-1.93v-10.59c0-3.99-3.35-6.01-9.95-6.01Z"/>
        <path class="cls-1" d="M120.01,76.65h-6.32c-6.97,0-10.5,2.18-10.5,6.48v1.14c0,1.45.78,2.26,2.21,2.26s2.24-.8,2.24-2.26v-1.02c0-.71,0-2.86,5.34-2.86h8.17c4.99,0,4.99,2.16,4.99,2.86v1.09c0,1.41.77,2.18,2.18,2.18s2.21-.8,2.21-2.26v-1.14c0-4.3-3.53-6.48-10.5-6.48Z"/>
        <path class="cls-1" d="M128.3,90.4c-1.41,0-2.18.79-2.18,2.24v1.24c0,.68,0,2.76-5.21,2.76h-7.95c-5.34,0-5.34-2.08-5.34-2.76v-1.24c0-1.44-.79-2.24-2.24-2.24s-2.21.79-2.21,2.24v1.34c0,4.25,3.53,6.41,10.5,6.41h6.32c6.97,0,10.5-2.17,10.5-6.46v-1.29c0-1.44-.78-2.24-2.21-2.24Z"/>
        <path class="cls-1" d="M150.77,89.22h-9.42c-1,0-2.19-.15-2.19-.84v-2c0-.18,0-.74,1.64-.74h14.44c1.23,0,1.93-.66,1.93-1.81s-.7-1.81-1.93-1.81h-13.67c-4.33,0-6.53,1.37-6.53,4.08v2.55c0,2.77,2.31,4.18,6.85,4.18h9.27c1.74,0,1.74.65,1.74.89v2.05c0,.51-.17.99-1.37.99h-14.61c-1.18,0-1.86.67-1.86,1.83s.68,1.78,1.86,1.78h14.04c5.13,0,6.21-2.38,6.21-4.39v-2.5c0-2.84-2.15-4.28-6.4-4.28Z"/>
      </g>
    </g>
  </g>
</svg>