<svg width="1080" height="858" viewBox="0 0 1080 858" fill="none" xmlns="http://www.w3.org/2000/svg">
<path d="M942.667 111.351C783.436 -37.3043 525.588 -36.5007 359.301 110.065C343.265 101.226 324.825 96.0834 305.101 96.0834C243.205 96.0834 192.854 146.546 192.854 208.579C192.854 270.612 243.205 321.075 305.101 321.075C366.998 321.075 417.349 270.612 417.349 208.579C417.349 193.151 414.302 178.527 408.69 165.188C547.075 43.5318 760.025 42.4069 892.156 165.67C963.674 232.524 1004.08 323.003 1005.69 420.714C1007.45 518.424 970.409 610.349 901.457 679.453C762.59 818.626 536.652 818.626 397.786 679.453L371.488 653.097L340.539 684.114C280.888 743.897 184.034 743.897 124.383 684.114C62.3258 621.92 57.0341 524.049 112.356 461.051C141.861 427.303 182.751 408.018 227.169 406.41C259.24 405.446 290.028 413.642 316.647 430.356L321.938 433.57L287.302 468.283C271.106 459.123 252.345 453.819 232.301 453.819C170.404 453.819 120.053 504.282 120.053 566.315C120.053 628.348 170.404 678.811 232.301 678.811C294.197 678.811 344.548 628.348 344.548 566.315C344.548 551.53 341.662 537.227 336.37 524.37L376.298 484.354L484.377 592.671C527.191 635.58 584.277 659.365 644.891 659.365C705.504 659.365 762.59 635.741 805.405 592.671C848.219 549.762 871.952 492.55 871.952 431.802C871.952 371.055 848.38 313.843 805.405 270.934C762.43 228.025 705.504 204.24 644.891 204.24C584.277 204.24 527.191 227.864 484.377 270.934L374.695 380.858L371.327 378.287C328.353 346.466 276.398 330.074 224.924 332.324C159.66 334.413 99.8485 362.698 56.5531 412.035C-24.4256 504.442 -17.6907 646.99 71.947 736.665C151.162 816.055 278.483 825.216 368.12 758.2L371.167 755.95L374.214 758.361C451.023 822.644 548.839 858 649.541 858C764.675 858 872.753 813.162 953.892 731.844C1037.28 648.437 1082.01 537.388 1079.93 419.106C1077.85 300.986 1029.1 191.544 942.667 111.029V111.351ZM232.461 604.724C211.455 604.724 194.457 587.689 194.457 566.636C194.457 545.584 211.455 528.549 232.461 528.549C253.467 528.549 270.465 545.584 270.465 566.636C270.465 587.689 253.467 604.724 232.461 604.724ZM536.973 323.646C565.836 294.718 604.161 278.808 645.051 278.808C685.941 278.808 724.266 294.718 753.129 323.646C781.993 352.573 797.868 390.983 797.868 431.963C797.868 472.944 781.993 511.353 753.129 540.28C724.266 569.208 685.941 585.118 645.051 585.118C604.161 585.118 565.836 569.208 536.973 540.28L428.894 431.963L536.973 323.646Z" fill="white"/>
</svg>
